<svg xmlns="http://www.w3.org/2000/svg" height="20px" viewBox="0 -960 960 960" width="20px" fill="#FFFF55"><path d="M247-155.21q-13-13.21-13-33T247.21-221q13.21-13 33-13T313-220.79q13 13.21 13 33T312.79-155q-13.21 13-33 13T247-155.21Zm400 0q-13-13.21-13-33T647.21-221q13.21-13 33-13T713-220.79q13 13.21 13 33T712.79-155q-13.21 13-33 13T647-155.21ZM239-722l97 224h282q9 0 16-4.5t12-12.5l75-179q6-11 1-19.5t-17-8.5H239Zm-7-20h480q18 0 26 12t2 26l-75.37 195.86Q659-495 647.5-486.5T621-478H317l-48 84q-8 12-.5 26t22.5 14h435v20H292q-30 0-43-23.15-13-23.16 2-46.85l60-102-135-312h-76v-20h91l41 96Zm104 244h301-301Z"/></svg>